<?xml version="1.0" standalone="no"?>
<!DOCTYPE svg PUBLIC "-//W3C//DTD SVG 20010904//EN"
 "http://www.w3.org/TR/2001/REC-SVG-20010904/DTD/svg10.dtd">
<svg version="1.0" xmlns="http://www.w3.org/2000/svg"
 width="1080.000000pt" height="1080.000000pt" viewBox="0 0 1080.000000 1080.000000"
 preserveAspectRatio="xMidYMid meet">
<metadata>
Created by potrace 1.11, written by Peter Selinger 2001-2013
</metadata>
<g transform="translate(0.000000,1080.000000) scale(0.100000,-0.100000)"
fill="#000000" stroke="none">
<path d="M7467 10360 c-832 -81 -1559 -517 -2020 -1212 -220 -331 -363 -713
-423 -1133 -21 -144 -24 -497 -6 -650 40 -322 119 -581 273 -892 l90 -182
-2225 -2222 -2226 -2222 0 -477 0 -478 476 -7 476 -7 307 306 c263 262 311
306 336 306 54 1 846 67 850 72 3 2 21 202 40 444 l36 439 204 205 205 205
440 36 c242 20 442 38 445 40 2 3 20 203 40 444 l36 440 759 759 759 760 148
-76 c667 -344 1407 -399 2108 -158 676 233 1229 722 1545 1365 204 415 292
823 277 1280 -15 426 -108 786 -301 1160 -399 773 -1141 1306 -2002 1435 -157
24 -501 34 -647 20z m761 -1092 c405 -309 782 -686 1092 -1091 l82 -108 -17
-47 c-96 -256 -274 -467 -508 -603 -87 -52 -206 -101 -221 -92 -6 4 -54 39
-107 79 -399 301 -788 688 -1100 1094 -35 47 -68 90 -72 97 -8 13 45 140 98
233 78 138 191 265 314 354 86 62 283 166 314 166 10 0 67 -37 125 -82z"/>
</g>
</svg>
